<?xml version="1.0" standalone="no"?>
<!DOCTYPE svg PUBLIC "-//W3C//DTD SVG 20010904//EN"
 "http://www.w3.org/TR/2001/REC-SVG-20010904/DTD/svg10.dtd">
<svg version="1.0" xmlns="http://www.w3.org/2000/svg"
 width="666.000000pt" height="375.000000pt" viewBox="0 0 666.000000 375.000000"
 preserveAspectRatio="xMidYMid meet">

<g transform="translate(0.000000,375.000000) scale(0.100000,-0.100000)"
fill="#000000" stroke="none">
<path d="M4609 3618 c-63 -51 -181 -147 -263 -213 -81 -66 -170 -138 -197
-159 l-50 -39 -97 46 c-228 108 -413 149 -677 149 -156 0 -196 -4 -300 -26
-249 -53 -439 -137 -635 -280 -85 -61 -280 -262 -343 -353 -194 -277 -287
-572 -286 -908 0 -297 66 -547 211 -800 77 -134 239 -325 352 -415 31 -25 56
-51 56 -58 0 -7 -51 -77 -113 -155 -62 -78 -128 -162 -147 -187 -19 -25 -37
-47 -40 -50 -3 -3 -21 -25 -40 -50 -19 -25 -41 -51 -48 -59 -7 -7 -11 -16 -8
-18 4 -4 82 51 146 104 245 202 404 321 418 314 10 -4 60 -27 112 -52 216
-104 420 -150 665 -150 319 0 602 85 875 263 297 193 529 508 636 863 102 335
79 736 -59 1055 -108 251 -277 474 -480 633 l-36 28 127 162 c213 272 291 370
323 410 16 20 26 37 22 37 -5 0 -61 -42 -124 -92z m41 8 c0 -5 -172 -225 -482
-616 -68 -85 -154 -196 -193 -245 -38 -50 -72 -92 -75 -95 -12 -10 -140 -179
-140 -184 0 -3 117 -7 259 -8 l260 -3 -87 -90 c-48 -50 -159 -167 -247 -260
-88 -93 -194 -205 -236 -250 -119 -126 -184 -196 -187 -206 -2 -5 105 -10 238
-11 l241 -3 -107 -85 c-59 -47 -201 -159 -315 -250 -114 -91 -287 -228 -384
-305 -97 -77 -189 -150 -203 -161 -15 -12 -99 -79 -187 -149 -88 -70 -176
-140 -195 -155 -19 -15 -107 -85 -195 -155 -88 -70 -169 -134 -180 -143 -11
-10 -40 -33 -65 -52 -25 -19 -56 -45 -70 -57 -30 -28 -38 -22 -14 10 52 68
299 383 304 387 3 3 21 25 40 50 19 25 37 47 40 50 3 3 44 55 91 115 46 61
114 148 151 195 142 179 198 252 198 259 0 4 -108 6 -240 3 -142 -3 -240 -1
-240 5 0 11 22 35 340 368 320 336 435 458 438 465 2 5 -113 6 -255 4 -238 -5
-256 -4 -238 11 11 9 29 23 40 33 11 9 76 62 145 117 69 55 127 102 130 106 3
3 88 72 190 154 102 82 219 177 260 210 109 88 315 255 759 614 79 64 203 164
275 223 136 110 136 111 136 104z m-1040 -261 c147 -28 251 -63 400 -132 l74
-34 -39 -34 c-46 -40 -58 -42 -105 -17 -59 31 -169 69 -285 98 -102 26 -125
28 -320 28 -169 1 -227 -3 -295 -18 -222 -48 -444 -152 -607 -283 -349 -279
-553 -698 -553 -1137 0 -442 191 -846 534 -1132 l49 -41 -27 -36 c-16 -21 -33
-37 -40 -37 -6 0 -47 31 -92 69 -70 59 -106 98 -213 226 -74 90 -189 301 -231
425 -66 198 -83 306 -83 520 0 184 7 248 49 409 68 266 224 526 432 722 245
230 527 367 857 415 117 17 382 11 495 -11z m700 -322 c170 -141 305 -309 410
-514 188 -366 216 -827 74 -1224 -185 -515 -627 -894 -1174 -1005 -83 -17
-142 -22 -285 -22 -219 -1 -340 19 -532 85 -94 33 -244 108 -240 120 1 5 21
23 44 39 l40 30 62 -32 c96 -48 256 -98 386 -120 659 -113 1326 263 1577 888
213 532 96 1138 -300 1548 -42 44 -101 100 -130 125 l-54 44 29 37 c15 21 33
37 38 38 6 0 30 -17 55 -37z"/>
</g>
</svg>
